<mxfile host="65bd71144e">
    <diagram id="obnHRRGZuKuTkG0FY_5U" name="Page-1">
        <mxGraphModel dx="531" dy="305" grid="1" gridSize="10" guides="1" tooltips="1" connect="1" arrows="1" fold="1" page="1" pageScale="1" pageWidth="850" pageHeight="1100" math="0" shadow="0">
            <root>
                <mxCell id="0"/>
                <mxCell id="1" parent="0"/>
                <mxCell id="8" style="edgeStyle=none;html=1;exitX=0.5;exitY=1;exitDx=0;exitDy=0;fontSize=18;fontColor=#FFFFFF;" edge="1" parent="1" source="3" target="7">
                    <mxGeometry relative="1" as="geometry"/>
                </mxCell>
                <mxCell id="3" value="&lt;span style=&quot;&quot;&gt;&lt;font style=&quot;font-size: 18px;&quot;&gt;HOME&lt;/font&gt;&lt;/span&gt;" style="text;align=center;html=1;verticalAlign=middle;whiteSpace=wrap;rounded=0;labelBackgroundColor=none;fillColor=#0050ef;fontColor=#ffffff;strokeColor=#001DBC;rotation=0;" vertex="1" parent="1">
                    <mxGeometry x="30" y="140" width="140" height="80" as="geometry"/>
                </mxCell>
                <mxCell id="9" style="edgeStyle=none;html=1;exitX=1;exitY=0.5;exitDx=0;exitDy=0;fontSize=18;fontColor=#FFFFFF;entryX=0;entryY=0.5;entryDx=0;entryDy=0;" edge="1" parent="1" source="7" target="10">
                    <mxGeometry relative="1" as="geometry">
                        <mxPoint x="320" y="340" as="targetPoint"/>
                    </mxGeometry>
                </mxCell>
                <mxCell id="26" style="edgeStyle=none;html=1;exitX=0.25;exitY=1;exitDx=0;exitDy=0;fontSize=18;fontColor=#FFFFFF;entryX=0.5;entryY=0;entryDx=0;entryDy=0;" edge="1" parent="1" source="7" target="27">
                    <mxGeometry relative="1" as="geometry">
                        <mxPoint x="65" y="480" as="targetPoint"/>
                    </mxGeometry>
                </mxCell>
                <mxCell id="30" style="edgeStyle=none;html=1;exitX=0.25;exitY=1;exitDx=0;exitDy=0;entryX=0;entryY=0;entryDx=0;entryDy=0;fontSize=18;fontColor=#FFFFFF;" edge="1" parent="1" source="7" target="28">
                    <mxGeometry relative="1" as="geometry"/>
                </mxCell>
                <mxCell id="7" value="&lt;span style=&quot;&quot;&gt;&lt;font style=&quot;font-size: 18px;&quot;&gt;Login | Register&lt;br&gt;&lt;/font&gt;&lt;/span&gt;" style="text;align=center;html=1;verticalAlign=middle;whiteSpace=wrap;rounded=0;labelBackgroundColor=none;fillColor=#0050ef;fontColor=#ffffff;strokeColor=#001DBC;rotation=0;" vertex="1" parent="1">
                    <mxGeometry x="30" y="300" width="140" height="80" as="geometry"/>
                </mxCell>
                <mxCell id="20" value="" style="html=1;fontSize=18;fontColor=#FFFFFF;" edge="1" parent="1" source="10">
                    <mxGeometry relative="1" as="geometry">
                        <mxPoint x="420" y="340" as="targetPoint"/>
                    </mxGeometry>
                </mxCell>
                <mxCell id="10" value="&lt;span style=&quot;&quot;&gt;&lt;font style=&quot;font-size: 18px;&quot;&gt;Dashboard&lt;br&gt;&lt;/font&gt;&lt;/span&gt;" style="text;align=center;html=1;verticalAlign=middle;whiteSpace=wrap;rounded=0;labelBackgroundColor=none;fillColor=#0050ef;fontColor=#ffffff;strokeColor=#001DBC;rotation=0;" vertex="1" parent="1">
                    <mxGeometry x="220" y="300" width="170" height="80" as="geometry"/>
                </mxCell>
                <mxCell id="16" style="edgeStyle=none;html=1;exitX=1;exitY=0.5;exitDx=0;exitDy=0;entryX=0;entryY=0.5;entryDx=0;entryDy=0;fontSize=18;fontColor=#FFFFFF;" edge="1" parent="1" source="19" target="15">
                    <mxGeometry relative="1" as="geometry">
                        <mxPoint x="680" y="220" as="sourcePoint"/>
                    </mxGeometry>
                </mxCell>
                <mxCell id="17" style="edgeStyle=none;html=1;exitX=1;exitY=0.5;exitDx=0;exitDy=0;fontSize=18;fontColor=#FFFFFF;entryX=0;entryY=0.5;entryDx=0;entryDy=0;" edge="1" parent="1" source="14" target="15">
                    <mxGeometry relative="1" as="geometry">
                        <mxPoint x="710" y="260" as="targetPoint"/>
                    </mxGeometry>
                </mxCell>
                <mxCell id="24" style="edgeStyle=none;shape=link;html=1;fontSize=18;fontColor=#FFFFFF;" edge="1" parent="1" source="14">
                    <mxGeometry relative="1" as="geometry">
                        <mxPoint x="420" y="340" as="targetPoint"/>
                    </mxGeometry>
                </mxCell>
                <mxCell id="14" value="&lt;span style=&quot;&quot;&gt;&lt;font style=&quot;font-size: 18px;&quot;&gt;Leaderboard&lt;br&gt;&lt;/font&gt;&lt;/span&gt;" style="text;align=center;html=1;verticalAlign=middle;whiteSpace=wrap;rounded=0;labelBackgroundColor=none;fillColor=#0050ef;fontColor=#ffffff;strokeColor=#001DBC;rotation=0;" vertex="1" parent="1">
                    <mxGeometry x="470" y="310" width="130" height="60" as="geometry"/>
                </mxCell>
                <mxCell id="15" value="&lt;span style=&quot;&quot;&gt;&lt;font style=&quot;font-size: 18px;&quot;&gt;user/profile&lt;br&gt;&lt;/font&gt;&lt;/span&gt;" style="text;align=center;html=1;verticalAlign=middle;whiteSpace=wrap;rounded=0;labelBackgroundColor=none;fillColor=#0050ef;fontColor=#ffffff;strokeColor=#001DBC;rotation=0;" vertex="1" parent="1">
                    <mxGeometry x="680" y="250" width="130" height="60" as="geometry"/>
                </mxCell>
                <mxCell id="21" style="edgeStyle=none;shape=link;html=1;fontSize=18;fontColor=#FFFFFF;" edge="1" parent="1" source="18">
                    <mxGeometry relative="1" as="geometry">
                        <mxPoint x="420" y="170" as="targetPoint"/>
                    </mxGeometry>
                </mxCell>
                <mxCell id="18" value="&lt;span style=&quot;&quot;&gt;&lt;font style=&quot;font-size: 18px;&quot;&gt;Game&lt;br&gt;&lt;/font&gt;&lt;/span&gt;" style="text;align=center;html=1;verticalAlign=middle;whiteSpace=wrap;rounded=0;labelBackgroundColor=none;fillColor=#0050ef;fontColor=#ffffff;strokeColor=#001DBC;rotation=0;" vertex="1" parent="1">
                    <mxGeometry x="470" y="140" width="130" height="60" as="geometry"/>
                </mxCell>
                <mxCell id="23" style="edgeStyle=none;shape=link;html=1;exitX=0;exitY=0.5;exitDx=0;exitDy=0;fontSize=18;fontColor=#FFFFFF;" edge="1" parent="1" source="19">
                    <mxGeometry relative="1" as="geometry">
                        <mxPoint x="420" y="250" as="targetPoint"/>
                    </mxGeometry>
                </mxCell>
                <mxCell id="19" value="&lt;span style=&quot;&quot;&gt;&lt;font style=&quot;font-size: 18px;&quot;&gt;Social&lt;br&gt;&lt;/font&gt;&lt;/span&gt;" style="text;align=center;html=1;verticalAlign=middle;whiteSpace=wrap;rounded=0;labelBackgroundColor=none;fillColor=#0050ef;fontColor=#ffffff;strokeColor=#001DBC;rotation=0;" vertex="1" parent="1">
                    <mxGeometry x="470" y="220" width="130" height="60" as="geometry"/>
                </mxCell>
                <mxCell id="22" value="" style="edgeStyle=none;orthogonalLoop=1;jettySize=auto;html=1;fontSize=18;fontColor=#FFFFFF;shape=link;" edge="1" parent="1">
                    <mxGeometry width="80" relative="1" as="geometry">
                        <mxPoint x="420" y="450" as="sourcePoint"/>
                        <mxPoint x="420" y="170" as="targetPoint"/>
                        <Array as="points"/>
                    </mxGeometry>
                </mxCell>
                <mxCell id="29" style="edgeStyle=none;html=1;fontSize=18;fontColor=#FFFFFF;" edge="1" parent="1" source="27" target="28">
                    <mxGeometry relative="1" as="geometry"/>
                </mxCell>
                <mxCell id="27" value="&lt;span style=&quot;&quot;&gt;&lt;font style=&quot;font-size: 18px;&quot;&gt;OAuth 42&lt;br&gt;&lt;/font&gt;&lt;/span&gt;" style="text;align=center;html=1;verticalAlign=middle;whiteSpace=wrap;rounded=0;labelBackgroundColor=none;fillColor=#0050ef;fontColor=#ffffff;strokeColor=#001DBC;rotation=0;" vertex="1" parent="1">
                    <mxGeometry x="30" y="480" width="80" height="50" as="geometry"/>
                </mxCell>
                <mxCell id="31" style="edgeStyle=none;html=1;fontSize=18;fontColor=#FFFFFF;" edge="1" parent="1" source="28">
                    <mxGeometry relative="1" as="geometry">
                        <mxPoint x="310" y="505" as="targetPoint"/>
                    </mxGeometry>
                </mxCell>
                <mxCell id="28" value="&lt;span style=&quot;&quot;&gt;&lt;font style=&quot;font-size: 18px;&quot;&gt;2FA login&lt;br&gt;&lt;/font&gt;&lt;/span&gt;" style="text;align=center;html=1;verticalAlign=middle;whiteSpace=wrap;rounded=0;labelBackgroundColor=none;fillColor=#0050ef;fontColor=#ffffff;strokeColor=#001DBC;rotation=0;" vertex="1" parent="1">
                    <mxGeometry x="170" y="480" width="80" height="50" as="geometry"/>
                </mxCell>
                <mxCell id="32" value="" style="edgeStyle=none;orthogonalLoop=1;jettySize=auto;html=1;fontSize=18;fontColor=#FFFFFF;entryX=0.5;entryY=1;entryDx=0;entryDy=0;" edge="1" parent="1" target="10">
                    <mxGeometry width="80" relative="1" as="geometry">
                        <mxPoint x="305" y="505" as="sourcePoint"/>
                        <mxPoint x="390" y="504.5" as="targetPoint"/>
                        <Array as="points"/>
                    </mxGeometry>
                </mxCell>
                <mxCell id="34" value="&lt;span style=&quot;&quot;&gt;&lt;font style=&quot;font-size: 18px;&quot;&gt;...&lt;br&gt;&lt;/font&gt;&lt;/span&gt;" style="text;align=center;html=1;verticalAlign=middle;whiteSpace=wrap;rounded=0;labelBackgroundColor=none;fillColor=#0050ef;fontColor=#ffffff;strokeColor=#001DBC;rotation=0;" vertex="1" parent="1">
                    <mxGeometry x="470" y="410" width="130" height="60" as="geometry"/>
                </mxCell>
                <mxCell id="35" style="edgeStyle=none;shape=link;html=1;fontSize=18;fontColor=#FFFFFF;" edge="1" parent="1">
                    <mxGeometry relative="1" as="geometry">
                        <mxPoint x="420" y="439.76" as="targetPoint"/>
                        <mxPoint x="470" y="439.76" as="sourcePoint"/>
                    </mxGeometry>
                </mxCell>
            </root>
        </mxGraphModel>
    </diagram>
</mxfile>